<?xml version="1.0" encoding="UTF-8" standalone="no"?>
<svg
   viewBox="0 0 500 500"
   version="1.1"
   id="svg12"
   sodipodi:docname="icon.svg"
   width="500"
   height="500"
   inkscape:version="1.2.2 (732a01da63, 2022-12-09)"
   inkscape:export-filename="rocket-solid.png"
   inkscape:export-xdpi="6.1440001"
   inkscape:export-ydpi="6.1440001"
   xmlns:inkscape="http://www.inkscape.org/namespaces/inkscape"
   xmlns:sodipodi="http://sodipodi.sourceforge.net/DTD/sodipodi-0.dtd"
   xmlns:xlink="http://www.w3.org/1999/xlink"
   xmlns="http://www.w3.org/2000/svg"
   xmlns:svg="http://www.w3.org/2000/svg">
  <defs
     id="defs16">
    <linearGradient
       inkscape:collect="always"
       id="linearGradient987">
      <stop
         style="stop-color:#999999;stop-opacity:1;"
         offset="0"
         id="stop983" />
      <stop
         style="stop-color:#ffffff;stop-opacity:1;"
         offset="1"
         id="stop985" />
    </linearGradient>
    <linearGradient
       inkscape:collect="always"
       xlink:href="#linearGradient987"
       id="linearGradient989"
       x1="0"
       y1="250"
       x2="500"
       y2="250"
       gradientUnits="userSpaceOnUse" />
  </defs>
  <sodipodi:namedview
     id="namedview14"
     pagecolor="#ffffff"
     bordercolor="#000000"
     borderopacity="0.25"
     inkscape:showpageshadow="2"
     inkscape:pageopacity="0.0"
     inkscape:pagecheckerboard="0"
     inkscape:deskcolor="#d1d1d1"
     showgrid="false"
     inkscape:zoom="1.5898438"
     inkscape:cx="256.3145"
     inkscape:cy="256.3145"
     inkscape:window-width="1920"
     inkscape:window-height="1001"
     inkscape:window-x="-9"
     inkscape:window-y="-9"
     inkscape:window-maximized="1"
     inkscape:current-layer="svg12" />
  <path
     id="rect957"
     style="fill:url(#linearGradient989);fill-opacity:1;stroke:none;stroke-width:54.2926;stroke-dasharray:none;stroke-opacity:1;paint-order:stroke markers fill"
     d="M 0,0 V 500 H 500 V 0 Z m 386.74023,49.53125 c 19.05609,-0.313905 36.71725,1.564664 51.82618,4.345703 9.62987,1.743338 17.10138,9.297864 18.92773,18.927735 11.12416,60.518722 7.71994,161.714902 -92.48047,229.705082 -2.90557,1.99238 -6.06021,3.98612 -9.38086,5.97851 v 68.32227 c 0,21.08609 -11.12416,40.67765 -29.30469,51.38672 l -73.46874,43.58398 c -6.1432,3.65271 -13.78161,3.73571 -20.00782,0.16602 -6.2262,-3.56969 -10.04492,-10.12916 -10.04492,-17.35157 v -88.99218 c -11.70527,4.06778 -21.91623,7.38842 -29.63672,9.8789 -9.2978,2.98859 -19.42508,0.41378 -26.39844,-6.47656 h 0.082 l -25.6504,-25.65039 c -7.05636,-7.05637 -9.54719,-17.26859 -6.39257,-26.73242 2.49047,-7.38844 5.81015,-17.01746 9.79492,-28.0586 H 56.775391 c -7.139383,0 -13.781871,-3.81871 -17.351563,-10.04492 -3.569691,-6.2262 -3.486692,-13.86462 0.166016,-20.00781 l 43.583984,-73.46875 c 10.792091,-18.18052 30.300632,-29.30469 51.386722,-29.30469 h 68.32226 c 1.99239,-3.32065 3.98613,-6.39228 5.97852,-9.38086 50.99263,-75.212572 120.71066,-95.884456 177.8789,-96.82617 z m -31.10742,73 a 33.207031,33.207031 0 1 0 0,66.41406 33.207031,33.207031 0 1 0 0,-66.41406 z" />
  <!--! Font Awesome Pro 6.4.0 by @fontawesome - https://fontawesome.com License - https://fontawesome.com/license (Commercial License) Copyright 2023 Fonticons, Inc. -->
</svg>
